<svg width="215" height="58" viewBox="0 0 215 58" fill="none" xmlns="http://www.w3.org/2000/svg">
<g clip-path="url(#clip0_58_929)">
<path d="M153.969 55.0086C153.816 55.2068 153.654 55.3972 153.482 55.5791C153.097 55.9828 152.67 56.3444 152.209 56.6579C151.042 57.492 149.648 57.9501 148.213 57.971C145.755 57.971 143.327 56.5367 141.367 53.7851L134.28 42.6891L121.678 22.9539L121.623 22.8671L121.262 22.2884C121.08 21.9618 120.886 21.6435 120.681 21.339C119.005 18.8325 116.567 16.9316 113.728 15.9168C110.888 14.9021 107.798 14.8274 104.913 15.7037C102.028 16.5801 99.5011 18.3611 97.7059 20.7836C95.9107 23.2062 94.9422 26.1418 94.9434 29.1571C94.9434 29.3651 94.9324 29.58 94.9117 29.8143V29.8832C94.8938 29.7702 94.8745 29.6517 94.8566 29.5304L94.8331 29.3802C94.7257 28.6018 94.6154 27.7461 94.5576 27.3038C94.2912 24.3194 93.6676 21.3777 92.7002 18.5419C91.5171 15.3372 89.7901 12.3606 87.5952 9.74289C90.6801 6.33671 94.5329 3.71538 98.8338 2.0965C103.135 0.477607 107.76 -0.0921731 112.325 0.434459C116.89 0.961091 121.264 2.56897 125.083 5.12459C128.903 7.6802 132.057 11.1099 134.286 15.129L147.8 36.5273L153.707 45.8788C154.743 47.1624 155.33 48.7505 155.377 50.3996C155.425 52.0487 154.93 53.6678 153.969 55.0086Z" fill="#E30000"/>
<path d="M212.028 31.9582C210.928 33.3974 209.509 34.5622 207.884 35.3616C206.258 36.161 204.47 36.5732 202.658 36.5659H183.685C181.72 36.5659 179.836 35.7853 178.446 34.3959C177.057 33.0065 176.276 31.122 176.276 29.157C176.276 27.1921 177.057 25.3076 178.446 23.9182C179.836 22.5288 181.72 21.7482 183.685 21.7482H198.124C196.875 19.735 195.139 18.069 193.076 16.9045C191.013 15.7399 188.69 15.1142 186.321 15.0854C183.952 15.0566 181.614 15.6254 179.524 16.7395C177.433 17.8535 175.657 19.4766 174.36 21.4589L172.954 23.7406L172.839 23.9294L172.121 25.0978L171.91 25.4451L161.292 43.0487L161.2 43.2017L161.136 43.3036L154.505 54.3031C154.339 54.5478 154.161 54.7833 153.97 55.0086C154.93 53.6675 155.424 52.0484 155.376 50.3996C155.328 48.7508 154.741 47.1632 153.704 45.8802L147.797 36.5287L161.151 14.6564C164.023 9.71149 168.297 5.72938 173.432 3.21382C178.567 0.698264 184.333 -0.237715 190 0.524269C195.668 1.28625 200.981 3.71196 205.27 7.49456C209.558 11.2772 212.628 16.2467 214.092 21.7744C214.556 23.5161 214.612 25.3416 214.254 27.1083C213.895 28.8749 213.134 30.5348 212.028 31.9582Z" fill="#163DF9"/>
<path d="M204.846 43.3753H186.153C182.383 43.3713 178.768 41.8718 176.102 39.206C173.437 36.5402 171.937 32.9257 171.933 29.1557C171.963 27.5621 172.235 25.9824 172.741 24.4709C172.848 24.1485 172.878 23.9914 172.962 23.7255L172.539 24.4144L171.911 25.4478L161.295 43.0446L161.202 43.1975C163.67 47.6528 167.285 51.3662 171.673 53.9518C176.061 56.5374 181.061 57.9009 186.154 57.9008H204.848C206.774 57.9008 208.622 57.1354 209.984 55.7732C211.347 54.4109 212.112 52.5632 212.112 50.6367C212.112 48.7101 211.347 46.8624 209.984 45.5001C208.622 44.1378 206.774 43.3725 204.848 43.3725L204.846 43.3753ZM210.403 46.2247C210.23 46.0108 210.046 45.8062 209.852 45.6115C210.047 45.8055 210.231 46.0102 210.403 46.2247C210.575 46.4387 210.733 46.6628 210.877 46.8957C210.732 46.6633 210.573 46.4393 210.402 46.2247H210.403Z" fill="#E30000"/>
<path d="M134.279 42.6891C131.854 47.2999 128.204 51.1525 123.731 53.823C119.258 56.4934 114.135 57.8782 108.926 57.825C102.38 57.764 96.0455 55.4986 90.9455 51.3945C85.8454 47.2905 82.2774 41.5873 80.8174 35.2059C80.3516 33.2053 80.0097 31.1778 79.7937 29.135C79.6475 27.2955 79.2991 25.4777 78.7548 23.7145C78.1246 22.0061 77.1911 20.4255 75.999 19.049C74.917 17.7653 73.5732 16.7276 72.0576 16.0052C70.542 15.2828 68.8896 14.8925 67.211 14.8603C60.3217 14.8603 54.7123 21.1627 54.7123 28.9146V49.7052C54.7111 50.6998 54.5105 51.6839 54.1224 52.5996C53.7343 53.5153 53.1665 54.3439 52.4527 55.0364C51.7389 55.7289 50.8935 56.2712 49.9665 56.6314C49.0395 56.9915 48.0497 57.1622 47.0555 57.1333C45.1061 57.0474 43.266 56.2088 41.9223 54.7939C40.5785 53.3789 39.8359 51.498 39.8507 49.5468V28.9132C39.8507 28.65 39.8424 28.3689 39.8245 28.0369C39.4111 20.6501 33.9382 14.8617 27.352 14.8617C20.4627 14.8617 14.8534 21.1641 14.8534 28.9159V50.5746C14.8439 52.5178 14.0772 54.3808 12.7162 55.7678C11.3552 57.1548 9.5071 57.9565 7.56445 58.0027C6.59135 58.0188 5.62495 57.8391 4.72266 57.4744C3.82036 57.1096 3.00059 56.5672 2.31202 55.8794C1.58128 55.1621 0.999976 54.307 0.601707 53.3636C0.203438 52.4202 -0.00388502 51.4071 -0.00830078 50.3831V28.9132C-0.00830078 12.9698 12.2644 0 27.352 0C31.1305 0.0283609 34.8602 0.856432 38.2956 2.42977C41.7311 4.00311 44.7945 6.28606 47.2843 9.12838C49.7572 6.2537 52.8239 3.94924 56.2732 2.37376C59.7224 0.798289 63.4721 -0.0107414 67.2641 0.00235476C71.0561 0.0154509 74.8002 0.850359 78.2384 2.44962C81.6767 4.04888 84.7274 6.37449 87.1805 9.26617C87.2673 9.364 87.3486 9.46317 87.4326 9.56376L87.5704 9.73187L87.5842 9.74978C89.779 12.3675 91.506 15.3442 92.6892 18.5489C93.6565 21.3847 94.2801 24.3263 94.5465 27.3107C94.6016 27.753 94.7119 28.6101 94.8221 29.3872L94.8455 29.5373C94.8634 29.6586 94.8827 29.7771 94.9007 29.8901C95.0081 30.5556 95.1184 31.1081 95.2424 31.6083C95.7977 34.1542 97.016 36.5081 98.7738 38.4315C100.086 39.8178 101.657 40.9321 103.4 41.7108C105.142 42.4896 107.021 42.9176 108.929 42.9702C112.619 42.9581 116.158 41.4997 118.786 38.9079C121.413 36.3162 122.92 32.7976 122.983 29.1075C122.999 27.9803 122.883 26.855 122.636 25.7551C122.37 24.8062 122.05 23.8732 121.678 22.9608L134.279 42.6891Z" fill="#163DF9"/>
</g>
<defs>
<clipPath id="clip0_58_929">
<rect width="214.485" height="58" fill="white"/>
</clipPath>
</defs>
</svg>

