<svg width="16" height="15" viewBox="0 0 16 15" fill="none" xmlns="http://www.w3.org/2000/svg">
<path d="M1.42109 10.9271C1.45953 10.8966 4.25 8.88521 5.01594 9.02959C5.38156 9.09427 5.59062 9.34365 6.01015 9.84287C6.07765 9.92349 6.23984 10.1166 6.36594 10.254C6.63106 10.1675 6.88969 10.0622 7.13984 9.93896C8.43101 9.31037 9.47422 8.26715 10.1028 6.97599C10.2262 6.72588 10.3314 6.46725 10.4178 6.20209C10.28 6.07552 10.0869 5.91334 10.0044 5.84396C9.5075 5.42677 9.25766 5.21771 9.19297 4.85115C9.06031 4.09177 11.0703 1.28209 11.0914 1.25677C11.1826 1.12649 11.3016 1.01811 11.4398 0.939477C11.5781 0.86084 11.732 0.813911 11.8906 0.802085C12.7053 0.802085 15.0312 3.81943 15.0312 4.32755C15.0312 4.35709 14.9886 7.35896 11.2869 11.1244C7.52516 14.8219 4.52375 14.8646 4.49422 14.8646C3.98562 14.8646 0.968748 12.5386 0.968748 11.724C0.980445 11.5659 1.02709 11.4125 1.10532 11.2747C1.18354 11.1369 1.2914 11.0181 1.42109 10.9271Z" fill="white"/>
</svg>
